<?xml version="1.0" encoding="utf-8"?>
<!-- Generator: Adobe Illustrator 15.0.0, SVG Export Plug-In . SVG Version: 6.00 Build 0)  -->
<!DOCTYPE svg PUBLIC "-//W3C//DTD SVG 1.1//EN" "http://www.w3.org/Graphics/SVG/1.1/DTD/svg11.dtd">
<svg version="1.1" id="Layer_1" xmlns="http://www.w3.org/2000/svg" xmlns:xlink="http://www.w3.org/1999/xlink" x="0px" y="0px"
	 width="156.574px" height="36px" viewBox="0 -12.456 156.574 36" enable-background="new 0 -12.456 156.574 36"
	 xml:space="preserve">
<g>
	<g>
		<defs>
			<rect id="SVGID_1_" x="-135.8" y="-30.819" width="307.256" height="66.97"/>
		</defs>
		<clipPath id="SVGID_2_">
			<use xlink:href="#SVGID_1_"  overflow="visible"/>
		</clipPath>
		<g clip-path="url(#SVGID_2_)">
			<path fill="#FFFFFF" d="M5.604,6.006h2.029C7.56,7.007,7.278,7.846,6.788,8.52c-0.67,0.92-1.612,1.378-2.826,1.378
				c-1.15,0-2.062-0.395-2.736-1.186C0.409,7.748,0,6.5,0,4.966c0-1.505,0.395-2.729,1.184-3.671C1.909,0.431,2.851,0,4.011,0
				C5.253,0,6.22,0.498,6.913,1.496c0.392,0.568,0.614,1.201,0.665,1.897H5.569C5.504,3.029,5.405,2.731,5.271,2.5
				C4.976,1.987,4.546,1.731,3.983,1.731c-0.629,0-1.108,0.298-1.441,0.894C2.2,3.244,2.029,4.018,2.029,4.945
				c0,0.941,0.179,1.727,0.534,2.355c0.323,0.576,0.79,0.865,1.399,0.865c0.526,0,0.931-0.229,1.212-0.687
				C5.387,7.13,5.53,6.638,5.604,6.006"/>
			<polygon fill="#FFFFFF" points="16.065,0.214 16.065,9.669 14.036,9.669 14.036,1.945 11.023,1.945 11.023,9.669 8.993,9.669 
				8.993,0.214 			"/>
			<path fill="#FFFFFF" d="M21.486,0c1.09,0,1.998,0.406,2.724,1.219c0.825,0.919,1.239,2.16,1.239,3.727
				c0,1.341-0.313,2.46-0.936,3.359c-0.369,0.53-0.836,0.938-1.4,1.219c-0.502,0.25-1.063,0.375-1.683,0.375
				c-1.333,0-2.378-0.542-3.129-1.629c-0.611-0.877-0.915-1.979-0.915-3.311c0-1.561,0.395-2.789,1.184-3.685
				C19.318,0.424,20.29,0,21.486,0 M21.397,1.731c-0.611,0-1.086,0.293-1.428,0.88C19.6,3.248,19.414,4.02,19.414,4.924
				c0,0.947,0.183,1.734,0.548,2.363c0.165,0.287,0.41,0.518,0.734,0.692c0.235,0.125,0.484,0.187,0.747,0.187
				c0.385,0,0.73-0.133,1.04-0.4s0.549-0.693,0.719-1.275c0.146-0.49,0.217-1.009,0.217-1.558c0-0.924-0.181-1.697-0.54-2.321
				C22.537,2.024,22.044,1.731,21.397,1.731"/>
			<path fill="#FFFFFF" d="M33.979,7.938h0.756v3.151h-2.029v-1.42h-4.703v1.42H25.97V7.938h0.341c0.25,0,0.451-0.076,0.604-0.229
				c0.133-0.127,0.232-0.314,0.297-0.561c0.023-0.105,0.055-0.313,0.092-0.615l0.721-6.318h5.955L33.979,7.938L33.979,7.938z
				 M31.949,7.938V1.945H29.83l-0.541,4.613c-0.072,0.619-0.201,1.079-0.387,1.379L31.949,7.938L31.949,7.938z"/>
			<polygon fill="#FFFFFF" points="35.898,9.669 35.898,0.214 41.932,0.214 41.932,1.946 37.928,1.946 37.928,3.969 41.585,3.969 
				41.585,5.617 37.928,5.617 37.928,7.938 42.016,7.938 42.016,9.669 			"/>
			<path fill="#FFFFFF" d="M46.455,1.946l-0.539,4.925c-0.078,0.703-0.186,1.215-0.318,1.537c-0.311,0.754-0.829,1.209-1.561,1.365
				c-0.244,0.051-0.611,0.075-1.1,0.075V8.25c0.258-0.02,0.461-0.097,0.609-0.229c0.129-0.124,0.225-0.313,0.291-0.566
				c0.027-0.117,0.057-0.322,0.09-0.617l0.721-6.622h5.955v9.454h-2.027V1.946H46.455z"/>
			<polygon fill="#FFFFFF" points="52.318,0.214 54.266,0.214 54.266,5.818 57.334,0.858 57.334,0.214 59.281,0.214 59.281,9.669 
				57.334,9.669 57.334,4.059 54.266,9.066 54.266,9.669 52.318,9.669 			"/>
			<path fill="#FFFFFF" d="M72.467,7.938h0.756v3.151h-2.031v-1.42h-4.703v1.42H64.46V7.938h0.339c0.248,0,0.449-0.076,0.602-0.229
				c0.135-0.127,0.234-0.314,0.299-0.561c0.023-0.105,0.054-0.313,0.09-0.615l0.721-6.318h5.957L72.467,7.938L72.467,7.938z
				 M70.439,7.938V1.945h-2.121l-0.541,4.613c-0.074,0.619-0.203,1.079-0.389,1.379L70.439,7.938L70.439,7.938z"/>
			<path fill="#FFFFFF" d="M77.963,0c1.09,0,1.998,0.406,2.725,1.219c0.826,0.919,1.238,2.16,1.238,3.727
				c0,1.341-0.311,2.46-0.936,3.359c-0.369,0.53-0.836,0.938-1.398,1.219c-0.504,0.25-1.064,0.375-1.684,0.375
				c-1.334,0-2.377-0.542-3.131-1.629c-0.609-0.877-0.914-1.979-0.914-3.311c0-1.561,0.395-2.789,1.186-3.685
				C75.797,0.424,76.77,0,77.963,0 M77.873,1.731c-0.607,0-1.084,0.293-1.426,0.88c-0.369,0.637-0.554,1.409-0.554,2.313
				c0,0.947,0.183,1.734,0.548,2.363c0.166,0.287,0.411,0.518,0.734,0.692c0.232,0.125,0.482,0.187,0.746,0.187
				c0.383,0,0.729-0.133,1.039-0.4c0.31-0.268,0.549-0.693,0.722-1.275c0.143-0.49,0.215-1.009,0.215-1.558
				c0-0.924-0.181-1.697-0.541-2.321C79.014,2.024,78.52,1.731,77.873,1.731"/>
			<polygon fill="#FFFFFF" points="87.443,9.669 87.443,5.506 87.084,5.506 84.037,9.669 81.918,9.669 85.414,4.799 82.257,0.214 
				84.367,0.214 87.119,4.17 87.443,4.17 87.443,0.214 89.426,0.214 89.426,4.17 89.744,4.17 92.494,0.214 94.613,0.214 
				91.453,4.799 94.953,9.669 92.832,9.669 89.787,5.506 89.426,5.506 89.426,9.669 			"/>
			<polygon fill="#FFFFFF" points="95.941,0.214 97.889,0.214 97.889,5.818 100.957,0.858 100.957,0.214 102.904,0.214 
				102.904,9.669 100.957,9.669 100.957,4.059 97.889,9.066 97.889,9.669 95.941,9.669 			"/>
			<path fill="#FFFFFF" d="M104.621,9.669V0.215h3.373c0.67,0,1.188,0.062,1.552,0.187c0.526,0.184,0.918,0.485,1.171,0.9
				c0.227,0.365,0.34,0.771,0.34,1.219c0,0.929-0.453,1.603-1.356,2.022c1.147,0.389,1.725,1.168,1.725,2.341
				c0,1.025-0.389,1.793-1.163,2.308c-0.484,0.317-1.136,0.479-1.947,0.479h-3.693V9.669z M106.65,4.038h0.906
				c0.5,0,0.854-0.077,1.067-0.229c0.285-0.212,0.431-0.514,0.431-0.907c0-0.429-0.175-0.736-0.521-0.921
				c-0.187-0.102-0.513-0.153-0.979-0.153h-0.906v2.21H106.65z M106.65,8.056h1.094c0.568,0,0.971-0.096,1.205-0.284
				c0.297-0.235,0.445-0.577,0.445-1.024c0-0.521-0.197-0.89-0.59-1.103c-0.23-0.125-0.611-0.188-1.144-0.188h-1.013v2.599H106.65z"
				/>
			<path fill="#FFFFFF" d="M112.822,9.8V8.188c0.277,0.067,0.508,0.104,0.693,0.104c0.346,0,0.621-0.15,0.823-0.451
				c0.093-0.129,0.205-0.34,0.341-0.631l-2.896-6.995h2.256l1.664,4.938l1.662-4.938h2.215l-3.039,7.543
				c-0.306,0.758-0.646,1.293-1.024,1.607c-0.42,0.354-1.023,0.531-1.81,0.531C113.445,9.897,113.15,9.865,112.822,9.8"/>
			<path fill="#FFFFFF" d="M120.557,9.669V0.215h3.373c0.67,0,1.188,0.062,1.553,0.187c0.525,0.184,0.914,0.485,1.17,0.9
				c0.226,0.365,0.339,0.771,0.339,1.219c0,0.929-0.451,1.603-1.357,2.022c1.15,0.389,1.724,1.168,1.724,2.341
				c0,1.025-0.385,1.793-1.162,2.308c-0.484,0.317-1.131,0.479-1.943,0.479h-3.695V9.669z M122.586,4.038h0.908
				c0.498,0,0.854-0.077,1.066-0.229c0.287-0.212,0.43-0.514,0.43-0.907c0-0.429-0.176-0.736-0.52-0.921
				c-0.185-0.102-0.511-0.153-0.978-0.153h-0.908L122.586,4.038L122.586,4.038z M122.586,8.056h1.096
				c0.568,0,0.969-0.096,1.205-0.284c0.295-0.235,0.443-0.577,0.443-1.024c0-0.521-0.197-0.89-0.59-1.103
				c-0.23-0.125-0.611-0.188-1.143-0.188h-1.013L122.586,8.056L122.586,8.056z"/>
			<path fill="#FFFFFF" d="M130.904,0.214h2.076l2.994,9.456h-2.113l-0.59-2.112h-2.693l-0.596,2.112h-2.078L130.904,0.214z
				 M131.016,6.025h1.834l-0.912-3.262L131.016,6.025z"/>
			<path fill="#FFFFFF" d="M141.85,3.706V0.214h2.029v3.492h0.818c0.641,0,1.164,0.073,1.563,0.221
				c0.625,0.227,1.105,0.619,1.441,1.178c0.281,0.472,0.424,1.021,0.424,1.654c0,1.008-0.342,1.777-1.025,2.314
				c-0.328,0.254-0.721,0.426-1.176,0.512c-0.307,0.058-0.727,0.084-1.262,0.084h-2.813V5.395h-2.826v4.274h-2.029V0.214h2.029
				v3.492H141.85z M143.879,5.395v2.543h0.699c0.385,0,0.666-0.037,0.846-0.11c0.447-0.193,0.672-0.582,0.672-1.164
				c0-0.424-0.121-0.752-0.367-0.982c-0.207-0.189-0.559-0.285-1.053-0.285L143.879,5.395L143.879,5.395z"/>
			<path fill="#FFFFFF" d="M151.506,0.214h2.076l2.992,9.456h-2.113l-0.588-2.112h-2.693l-0.596,2.112h-2.078L151.506,0.214z
				 M151.615,6.025h1.834l-0.912-3.262L151.615,6.025z"/>
		</g>
	</g>
</g>
</svg>
